<svg id="svg" version="1.1" xmlns="http://www.w3.org/2000/svg" xmlns:xlink="http://www.w3.org/1999/xlink" width="400" height="117.4025974025974" viewBox="0, 0, 400,117.4025974025974"><g id="svgg"><path id="path0" d="M2.078 13.785 C 2.078 25.151,1.957 27.234,1.234 28.337 C -0.102 30.377,0.479 52.632,2.020 58.442 C 7.279 78.262,26.517 93.506,46.271 93.506 C 47.236 93.506,47.273 92.982,47.273 79.292 L 47.273 65.078 44.460 64.748 C 33.056 63.407,28.608 56.101,28.584 38.671 C 28.574 31.241,28.413 29.080,27.809 28.281 C 27.185 27.457,27.043 24.835,27.030 13.896 L 27.013 0.519 25.455 0.519 L 23.896 0.519 23.896 13.922 C 23.896 27.603,23.657 29.362,21.986 27.976 C 21.448 27.529,21.299 24.483,21.299 13.962 L 21.299 0.519 19.740 0.519 L 18.182 0.519 18.174 13.896 C 18.169 21.253,17.974 27.576,17.738 27.947 C 16.616 29.716,16.204 26.658,15.844 13.896 L 15.467 0.519 14.227 0.519 L 12.987 0.519 12.987 13.962 C 12.987 24.483,12.838 27.529,12.299 27.976 C 10.629 29.362,10.390 27.603,10.390 13.922 L 10.390 0.519 8.758 0.519 L 7.126 0.519 7.385 13.996 C 7.646 27.570,7.461 29.286,5.882 27.976 C 5.349 27.533,5.195 24.759,5.195 15.586 C 5.195 1.722,5.044 0.519,3.312 0.519 L 2.078 0.519 2.078 13.785 M46.234 8.412 C 46.234 12.839,46.384 18.918,46.568 21.921 L 46.902 27.380 50.328 28.012 C 62.123 30.185,66.077 36.070,66.481 52.054 C 66.673 59.651,66.944 62.999,67.403 63.456 C 67.891 63.943,68.052 67.684,68.052 78.545 L 68.052 92.987 69.610 92.987 L 71.169 92.987 71.169 78.505 C 71.169 67.123,71.316 63.901,71.857 63.453 C 73.544 62.052,73.766 63.804,73.766 78.545 L 73.766 92.987 75.325 92.987 L 76.883 92.987 76.883 78.212 C 76.883 63.828,77.097 61.824,78.483 63.211 C 78.742 63.469,79.110 70.275,79.301 78.334 L 79.648 92.987 80.863 92.987 L 82.078 92.987 82.094 78.571 C 82.107 67.717,82.274 63.941,82.773 63.285 C 84.342 61.221,84.675 63.920,84.675 78.694 L 84.675 92.987 86.234 92.987 L 87.792 92.987 87.792 78.212 C 87.792 63.327,87.957 62.004,89.633 63.396 C 90.262 63.918,90.390 66.460,90.390 78.505 L 90.390 92.987 91.940 92.987 L 93.490 92.987 93.158 78.571 C 92.858 65.540,92.909 64.087,93.686 63.443 C 94.846 62.481,94.936 43.693,93.810 37.804 C 89.892 17.328,72.353 2.106,51.039 0.684 L 46.234 0.363 46.234 8.412 M387.453 1.538 C 381.868 4.577,381.921 13.409,387.543 16.233 C 396.928 20.948,404.653 8.188,396.223 1.895 C 394.218 0.398,389.875 0.221,387.453 1.538 M105.974 47.013 L 105.974 92.468 116.639 92.468 L 127.305 92.468 127.026 73.377 C 126.873 62.877,126.646 47.623,126.522 39.481 C 126.398 31.338,126.392 24.909,126.509 25.195 C 126.625 25.481,129.882 40.208,133.747 57.922 C 137.611 75.636,140.895 90.656,141.046 91.299 C 141.318 92.467,141.324 92.468,152.696 92.468 L 164.073 92.468 164.870 88.961 C 165.308 87.032,168.498 72.481,171.959 56.623 C 175.419 40.766,178.445 26.974,178.682 25.974 C 178.934 24.912,179.030 29.124,178.911 36.104 C 178.800 42.675,178.592 58.045,178.449 70.260 L 178.188 92.468 188.834 92.468 L 199.481 92.468 199.481 47.013 L 199.481 1.558 181.568 1.558 L 163.656 1.558 163.388 2.727 C 162.851 5.069,154.878 47.688,153.962 53.110 C 153.000 58.807,152.606 59.191,151.957 55.065 C 151.227 50.426,143.229 8.168,142.051 2.727 L 141.798 1.558 123.886 1.558 L 105.974 1.558 105.974 47.013 M210.909 47.013 L 210.909 92.468 221.808 92.468 L 232.707 92.468 232.475 90.260 C 232.139 87.072,231.739 24.994,232.063 26.234 C 232.212 26.805,235.540 41.883,239.459 59.740 L 246.584 92.208 258.030 92.347 L 269.477 92.487 269.772 91.049 C 271.215 84.014,283.724 27.152,283.915 26.753 C 284.052 26.468,284.043 41.136,283.895 59.351 L 283.625 92.468 294.280 92.468 L 304.935 92.468 304.935 47.006 L 304.935 1.545 286.905 1.682 L 268.874 1.818 267.199 10.649 C 266.277 15.506,263.978 27.896,262.089 38.182 C 258.201 59.351,257.991 60.168,257.458 56.150 C 257.023 52.874,254.139 37.401,250.065 16.494 L 247.154 1.558 229.032 1.558 L 210.909 1.558 210.909 47.013 M316.475 40.649 C 316.641 84.454,316.468 82.458,320.527 87.379 C 327.150 95.408,358.560 96.885,368.091 89.616 C 374.641 84.620,374.545 85.353,374.545 39.954 L 374.545 1.558 363.130 1.558 L 351.716 1.558 351.572 37.880 L 351.429 74.203 350.203 75.507 C 348.663 77.146,345.801 77.660,343.113 76.779 C 339.331 75.540,339.499 77.289,339.330 37.273 L 339.180 1.558 327.753 1.558 L 316.326 1.558 316.475 40.649 M394.768 2.468 C 398.398 4.319,399.860 8.500,398.079 11.938 C 394.360 19.119,383.770 16.253,384.537 8.273 C 385.040 3.039,390.174 0.126,394.768 2.468 M388.571 8.571 C 388.571 13.623,388.646 14.026,389.579 14.026 C 390.365 14.026,390.622 13.604,390.748 12.107 L 390.909 10.189 392.208 12.104 C 393.191 13.553,393.865 14.020,394.980 14.022 L 396.454 14.026 394.871 11.874 L 393.288 9.722 394.306 8.427 C 396.485 5.657,394.970 3.117,391.139 3.117 L 388.571 3.117 388.571 8.571 M392.560 6.026 C 392.735 6.484,392.552 7.065,392.154 7.317 C 390.985 8.057,390.649 7.874,390.649 6.494 C 390.649 5.022,392.043 4.681,392.560 6.026 M41.818 34.469 C 27.582 41.112,35.013 62.470,50.411 59.168 C 62.777 56.516,64.699 39.799,53.251 34.468 C 49.721 32.824,45.342 32.825,41.818 34.469 M315.856 102.190 C 311.945 104.196,312.664 107.989,317.412 110.394 C 322.233 112.837,320.378 115.650,314.565 114.710 C 312.868 114.436,312.927 116.267,314.638 116.926 C 321.728 119.659,325.668 111.710,318.918 108.290 C 314.718 106.162,314.954 103.544,319.300 104.033 C 320.962 104.221,321.574 104.086,321.805 103.482 C 322.511 101.644,318.583 100.792,315.856 102.190 M7.078 103.247 C 6.076 108.418,6.118 116.883,7.146 116.883 C 8.423 116.883,8.820 115.210,8.858 109.675 L 8.885 105.714 10.779 111.299 C 13.360 118.910,14.143 118.959,16.649 111.666 L 18.442 106.450 18.786 108.939 C 18.975 110.308,19.150 112.656,19.175 114.156 C 19.218 116.709,19.304 116.883,20.523 116.883 C 21.819 116.883,21.824 116.866,21.543 113.117 C 20.605 100.603,20.854 101.818,19.233 101.818 C 17.852 101.818,17.674 102.104,15.833 107.271 L 13.890 112.724 12.027 107.271 C 9.994 101.319,7.798 99.534,7.078 103.247 M31.169 108.023 C 31.169 115.917,31.894 117.143,36.564 117.143 C 41.357 117.143,42.562 114.986,42.585 106.364 C 42.597 101.903,42.574 101.818,41.345 101.818 C 40.107 101.818,40.090 101.885,39.916 107.579 C 39.754 112.900,39.646 113.416,38.514 114.333 C 35.223 116.995,33.552 114.818,33.331 107.579 C 33.170 102.315,33.069 101.818,32.162 101.818 C 31.240 101.818,31.169 102.260,31.169 108.023 M51.948 109.351 L 51.948 116.883 56.364 116.883 C 60.433 116.883,60.779 116.802,60.779 115.844 C 60.779 114.921,60.433 114.805,57.662 114.805 L 54.545 114.805 54.545 108.312 L 54.545 101.818 53.247 101.818 L 51.948 101.818 51.948 109.351 M65.455 102.857 C 65.455 103.742,65.801 103.896,67.792 103.896 L 70.130 103.896 70.130 110.390 L 70.130 116.883 71.429 116.883 L 72.727 116.883 72.727 110.390 L 72.727 103.896 74.805 103.896 C 76.537 103.896,76.883 103.723,76.883 102.857 C 76.883 101.881,76.537 101.818,71.169 101.818 C 65.801 101.818,65.455 101.881,65.455 102.857 M84.675 109.351 L 84.675 116.883 85.974 116.883 L 87.273 116.883 87.273 109.351 L 87.273 101.818 85.974 101.818 L 84.675 101.818 84.675 109.351 M97.465 104.805 C 97.300 106.448,97.014 109.858,96.829 112.382 L 96.493 116.972 97.727 116.798 C 98.905 116.631,98.968 116.417,99.111 112.078 C 99.300 106.356,99.695 106.377,101.558 112.208 C 103.679 118.843,104.683 118.785,107.059 111.893 C 109.023 106.194,109.515 106.382,109.574 112.857 C 109.610 116.829,109.628 116.883,110.951 116.883 L 112.291 116.883 111.971 111.558 C 111.409 102.213,111.316 101.818,109.688 101.818 C 108.365 101.818,104.935 108.894,104.935 111.621 C 104.935 113.449,103.909 111.574,102.414 107.013 C 100.789 102.054,100.645 101.818,99.238 101.818 C 97.825 101.818,97.752 101.941,97.465 104.805 M121.558 109.351 L 121.558 116.883 125.974 116.883 C 130.043 116.883,130.390 116.802,130.390 115.844 C 130.390 114.912,130.043 114.805,127.013 114.805 L 123.636 114.805 123.636 112.468 L 123.636 110.130 126.494 110.130 C 129.004 110.130,129.351 110.004,129.351 109.091 C 129.351 108.178,129.004 108.052,126.494 108.052 L 123.636 108.052 123.636 105.974 L 123.636 103.896 126.753 103.896 C 129.524 103.896,129.870 103.781,129.870 102.857 C 129.870 101.905,129.524 101.818,125.714 101.818 L 121.558 101.818 121.558 109.351 M139.337 109.481 L 139.481 117.143 142.910 117.106 C 148.670 117.043,151.695 114.278,151.680 109.091 C 151.665 104.112,148.936 101.818,143.026 101.818 L 139.193 101.818 139.337 109.481 M160.519 109.351 L 160.519 116.883 161.818 116.883 L 163.117 116.883 163.117 109.351 L 163.117 101.818 161.818 101.818 L 160.519 101.818 160.519 109.351 M176.064 103.212 C 175.247 105.349,171.429 116.444,171.429 116.681 C 171.429 118.155,174.057 116.530,174.673 114.675 C 175.379 112.547,175.492 112.462,177.781 112.311 L 180.156 112.155 180.897 114.389 C 181.509 116.233,184.418 118.217,184.415 116.788 C 184.415 116.697,183.273 113.351,181.877 109.351 C 179.084 101.345,177.442 99.610,176.064 103.212 M204.156 107.324 C 204.156 115.044,205.493 117.403,209.870 117.403 C 214.310 117.403,215.584 115.213,215.584 107.582 L 215.584 101.818 214.286 101.818 L 212.987 101.818 212.987 107.532 C 212.987 113.654,212.327 115.325,209.908 115.325 C 207.652 115.325,206.753 113.012,206.753 107.203 L 206.753 101.818 205.455 101.818 L 204.156 101.818 204.156 107.324 M225.455 109.351 C 225.455 116.492,225.508 116.883,226.475 116.883 C 227.413 116.883,227.508 116.455,227.644 111.608 L 227.792 106.332 230.936 111.478 C 233.525 115.716,234.326 116.652,235.481 116.788 L 236.883 116.952 236.883 109.385 C 236.883 102.165,236.836 101.818,235.844 101.818 C 234.870 101.818,234.805 102.165,234.805 107.384 L 234.805 112.950 231.389 107.384 C 228.563 102.779,227.756 101.818,226.714 101.818 L 225.455 101.818 225.455 109.351 M246.753 109.351 C 246.753 116.537,246.801 116.883,247.792 116.883 C 248.783 116.883,248.831 116.537,248.831 109.351 C 248.831 102.165,248.783 101.818,247.792 101.818 C 246.801 101.818,246.753 102.165,246.753 109.351 M257.409 103.408 C 260.645 118.139,263.375 119.963,267.081 109.870 C 269.975 101.986,270.002 101.818,268.355 101.818 C 267.217 101.818,266.917 102.363,265.172 107.600 L 263.246 113.382 261.397 107.600 C 259.722 102.361,259.432 101.818,258.304 101.818 C 257.187 101.818,257.096 101.980,257.409 103.408 M277.403 109.351 L 277.403 116.883 281.818 116.883 C 285.887 116.883,286.234 116.802,286.234 115.844 C 286.234 114.921,285.887 114.805,283.117 114.805 L 280.000 114.805 280.000 112.468 L 280.000 110.130 282.857 110.130 C 285.368 110.130,285.714 110.004,285.714 109.091 C 285.714 108.178,285.368 108.052,282.857 108.052 L 280.000 108.052 280.000 105.974 L 280.000 103.896 283.117 103.896 C 285.887 103.896,286.234 103.781,286.234 102.857 C 286.234 101.900,285.887 101.818,281.818 101.818 L 277.403 101.818 277.403 109.351 M295.065 109.351 L 295.065 116.883 296.364 116.883 C 297.605 116.883,297.662 116.745,297.662 113.766 C 297.662 108.908,300.819 109.418,302.100 114.482 C 302.544 116.237,302.888 116.652,304.007 116.784 L 305.372 116.944 304.592 113.927 C 304.163 112.267,303.609 110.698,303.360 110.440 C 303.099 110.170,303.337 109.424,303.921 108.682 C 306.732 105.108,304.242 101.818,298.725 101.818 L 295.065 101.818 295.065 109.351 M331.429 109.351 L 331.429 116.883 332.727 116.883 L 334.026 116.883 334.026 109.351 L 334.026 101.818 332.727 101.818 L 331.429 101.818 331.429 109.351 M341.818 102.857 C 341.818 103.742,342.165 103.896,344.156 103.896 L 346.494 103.896 346.494 110.390 C 346.494 116.537,346.549 116.883,347.532 116.883 C 348.516 116.883,348.571 116.537,348.571 110.390 L 348.571 103.896 350.909 103.896 C 352.900 103.896,353.247 103.742,353.247 102.857 C 353.247 101.881,352.900 101.818,347.532 101.818 C 342.165 101.818,341.818 101.881,341.818 102.857 M360.519 102.098 C 360.519 102.290,361.571 104.318,362.857 106.605 C 364.893 110.225,365.195 111.157,365.195 113.822 C 365.195 116.741,365.255 116.883,366.494 116.883 C 367.740 116.883,367.792 116.752,367.798 113.636 C 367.803 110.722,368.042 109.990,370.130 106.494 C 372.848 101.941,372.875 101.818,371.164 101.818 C 370.080 101.818,369.587 102.373,368.238 105.108 L 366.616 108.397 364.984 105.238 C 363.532 102.427,360.519 100.309,360.519 102.098 M147.572 105.415 C 151.298 109.140,148.204 115.325,142.614 115.325 L 141.299 115.325 141.299 109.610 L 141.299 103.896 143.676 103.896 C 145.612 103.896,146.336 104.179,147.572 105.415 M301.714 104.519 C 303.418 106.223,301.842 108.571,298.995 108.571 C 297.762 108.571,297.662 108.397,297.662 106.234 C 297.662 103.768,299.982 102.787,301.714 104.519 M178.051 110.556 C 176.007 110.779,175.974 110.695,176.974 107.762 L 177.840 105.219 178.710 107.804 L 179.579 110.390 178.051 110.556 " stroke="none" fill="#000000" fill-rule="evenodd"></path></g></svg>