<svg id="svg" version="1.1" xmlns="http://www.w3.org/2000/svg" xmlns:xlink="http://www.w3.org/1999/xlink" width="400" height="266.6666666666667" viewBox="0, 0, 400,266.6666666666667"><g id="svgg"><path id="path0" d="M62.917 58.950 C 60.258 59.004,57.516 59.334,57.357 59.619 C 57.282 59.753,57.189 59.848,57.152 59.829 C 56.987 59.745,55.877 60.327,55.469 60.710 C 55.222 60.942,54.989 61.101,54.951 61.062 C 54.890 61.001,54.390 61.527,53.068 63.045 C 52.847 63.298,52.667 63.611,52.667 63.739 C 52.667 63.867,52.601 63.997,52.521 64.028 C 52.270 64.124,51.504 65.793,51.409 66.453 C 51.358 66.800,51.276 67.196,51.227 67.333 C 50.584 69.107,51.621 73.734,52.989 75.196 C 53.132 75.350,53.433 75.730,53.656 76.040 C 53.879 76.350,54.315 76.787,54.624 77.011 C 54.934 77.234,55.285 77.506,55.404 77.615 C 55.524 77.723,56.101 78.050,56.686 78.341 C 57.271 78.631,57.894 78.945,58.070 79.037 C 58.670 79.352,60.098 79.378,83.667 79.502 C 109.587 79.638,108.468 79.588,110.083 80.662 C 113.115 82.678,114.329 87.486,112.399 89.833 C 112.285 89.971,112.168 90.196,112.138 90.333 C 112.108 90.471,112.038 90.621,111.983 90.667 C 111.774 90.841,110.930 92.256,110.964 92.375 C 110.984 92.444,110.934 92.500,110.854 92.500 C 110.773 92.500,110.614 92.725,110.500 93.000 C 110.386 93.275,110.214 93.500,110.119 93.500 C 110.023 93.500,109.995 93.551,110.057 93.613 C 110.119 93.675,110.006 93.900,109.806 94.113 C 109.606 94.326,109.511 94.501,109.596 94.503 C 109.681 94.504,109.672 94.560,109.577 94.628 C 109.258 94.854,108.340 96.377,108.433 96.527 C 108.484 96.608,108.427 96.654,108.308 96.629 C 108.189 96.604,108.066 96.752,108.034 96.958 C 108.003 97.165,107.908 97.333,107.824 97.333 C 107.740 97.333,107.569 97.577,107.445 97.875 C 107.320 98.173,107.094 98.520,106.942 98.645 C 106.791 98.771,106.667 98.950,106.667 99.042 C 106.667 99.135,106.411 99.566,106.098 100.002 C 105.785 100.437,105.408 101.009,105.259 101.272 C 104.930 101.855,104.714 102.199,103.333 104.333 C 101.925 106.509,101.732 106.818,101.398 107.417 C 101.245 107.692,101.071 107.954,101.010 108.000 C 100.950 108.046,100.703 108.426,100.461 108.846 C 100.219 109.265,99.547 110.329,98.969 111.210 C 97.497 113.452,96.930 114.396,96.968 114.542 C 96.985 114.610,96.925 114.667,96.833 114.667 C 96.742 114.667,96.667 114.746,96.667 114.843 C 96.667 114.940,96.404 115.364,96.083 115.784 C 95.763 116.204,95.500 116.619,95.500 116.706 C 95.500 116.793,95.344 117.063,95.154 117.307 C 94.599 118.017,92.678 121.000,92.775 121.000 C 92.823 121.000,92.674 121.225,92.443 121.499 C 92.212 121.774,91.975 122.149,91.917 122.332 C 91.859 122.516,91.736 122.667,91.646 122.667 C 91.555 122.667,91.523 122.735,91.575 122.819 C 91.626 122.903,91.612 122.997,91.543 123.027 C 91.344 123.116,90.726 124.052,90.596 124.462 C 90.531 124.666,90.425 124.833,90.360 124.833 C 90.295 124.833,90.094 125.115,89.913 125.458 C 89.732 125.802,89.452 126.229,89.292 126.406 C 89.131 126.584,89.000 126.828,89.000 126.948 C 89.000 127.068,88.937 127.167,88.860 127.167 C 88.783 127.167,88.630 127.335,88.520 127.542 C 88.232 128.082,88.024 128.415,86.988 130.000 C 86.478 130.779,86.011 131.529,85.950 131.667 C 85.818 131.962,83.753 135.159,83.504 135.451 C 83.410 135.562,83.333 135.722,83.333 135.806 C 83.333 135.890,83.221 136.053,83.083 136.167 C 82.946 136.281,82.833 136.515,82.833 136.687 C 82.833 136.859,82.769 137.000,82.690 137.000 C 82.612 137.000,82.273 137.412,81.939 137.917 C 81.604 138.421,81.382 138.833,81.446 138.833 C 81.510 138.833,81.354 139.051,81.098 139.318 C 80.843 139.584,80.652 139.855,80.675 139.919 C 80.719 140.045,80.503 140.381,79.788 141.296 C 79.534 141.622,79.282 142.064,79.228 142.278 C 79.174 142.492,79.061 142.667,78.977 142.667 C 78.892 142.667,78.774 142.798,78.713 142.958 C 78.653 143.119,78.343 143.623,78.024 144.079 C 77.705 144.536,77.444 145.001,77.444 145.114 C 77.444 145.227,77.344 145.357,77.222 145.404 C 77.100 145.451,77.000 145.604,77.000 145.745 C 77.000 145.885,76.925 146.000,76.833 146.000 C 76.742 146.000,76.667 146.083,76.667 146.184 C 76.667 146.286,76.498 146.580,76.292 146.838 C 75.977 147.232,74.677 149.267,74.083 150.295 C 73.992 150.453,73.648 150.996,73.321 151.500 C 72.404 152.910,72.101 153.413,72.139 153.462 C 72.158 153.486,72.022 153.669,71.837 153.868 C 71.652 154.067,71.500 154.328,71.500 154.448 C 71.500 154.568,71.425 154.667,71.333 154.667 C 71.242 154.667,71.167 154.773,71.167 154.903 C 71.167 155.033,71.109 155.164,71.039 155.194 C 70.848 155.277,69.833 156.915,69.833 157.140 C 69.833 157.246,69.756 157.333,69.661 157.333 C 69.567 157.333,69.435 157.466,69.370 157.628 C 69.304 157.791,68.982 158.335,68.654 158.837 C 67.825 160.107,67.499 160.642,67.465 160.790 C 67.449 160.860,67.262 161.104,67.050 161.333 C 66.837 161.563,66.616 161.900,66.559 162.083 C 66.502 162.267,66.406 162.454,66.347 162.500 C 66.147 162.655,65.167 164.278,65.167 164.455 C 65.167 164.552,65.054 164.674,64.917 164.727 C 64.779 164.780,64.667 164.929,64.667 165.058 C 64.667 165.187,64.555 165.385,64.419 165.498 C 64.282 165.612,64.211 165.771,64.262 165.852 C 64.312 165.933,64.292 166.001,64.218 166.001 C 64.144 166.002,63.926 166.246,63.734 166.543 C 62.387 168.627,62.156 169.002,62.166 169.085 C 62.173 169.137,62.077 169.280,61.953 169.404 C 61.765 169.592,60.736 171.186,60.083 172.300 C 59.992 172.457,59.485 173.243,58.958 174.048 C 58.431 174.853,58.000 175.540,58.000 175.575 C 58.000 175.610,57.513 176.376,56.918 177.278 C 56.323 178.179,55.835 179.002,55.834 179.107 C 55.834 179.212,55.721 179.341,55.583 179.394 C 55.446 179.446,55.333 179.595,55.333 179.724 C 55.333 179.854,55.221 180.053,55.083 180.167 C 54.946 180.281,54.833 180.498,54.833 180.650 C 54.833 180.802,54.684 181.034,54.501 181.166 C 54.318 181.298,54.087 181.652,53.988 181.953 C 53.889 182.254,53.738 182.500,53.654 182.500 C 53.569 182.500,53.500 182.576,53.500 182.668 C 53.500 182.761,53.237 183.210,52.917 183.667 C 52.596 184.123,52.333 184.572,52.333 184.665 C 52.333 184.758,52.258 184.833,52.167 184.833 C 52.075 184.833,52.000 184.902,52.000 184.986 C 52.000 185.070,51.625 185.699,51.167 186.385 C 50.708 187.070,50.333 187.714,50.333 187.815 C 50.333 187.917,50.254 188.000,50.157 188.000 C 50.060 188.000,50.023 188.070,50.076 188.155 C 50.129 188.240,50.097 188.357,50.006 188.413 C 49.812 188.533,48.480 190.564,48.068 191.368 C 47.913 191.670,47.737 191.954,47.676 192.000 C 46.576 192.830,45.614 197.499,46.169 199.323 C 46.240 199.558,46.428 200.188,46.586 200.724 C 46.919 201.851,47.608 203.155,47.938 203.281 C 48.063 203.329,48.120 203.441,48.065 203.530 C 47.949 203.717,49.955 205.699,50.631 206.067 C 51.167 206.358,52.446 206.976,52.917 207.171 C 54.297 207.743,54.282 207.743,96.167 207.747 C 140.353 207.750,141.739 207.741,143.250 207.417 C 144.750 207.097,147.223 205.814,147.442 205.243 C 147.494 205.109,147.640 205.000,147.768 205.000 C 147.896 205.000,148.000 204.917,148.000 204.816 C 148.000 204.714,148.190 204.482,148.422 204.299 C 149.226 203.667,150.805 200.768,150.615 200.273 C 150.562 200.135,150.584 199.998,150.663 199.969 C 151.692 199.594,150.856 193.898,149.459 191.765 C 148.850 190.837,145.837 188.074,145.831 188.439 C 145.829 188.518,145.773 188.499,145.706 188.396 C 145.564 188.180,144.264 187.567,143.661 187.433 C 142.703 187.219,138.977 187.145,125.750 187.076 C 104.898 186.967,89.283 186.846,88.995 186.790 C 88.855 186.763,88.391 186.537,87.965 186.287 C 87.539 186.038,87.118 185.833,87.030 185.833 C 86.941 185.833,86.822 185.710,86.764 185.559 C 86.706 185.409,86.617 185.327,86.566 185.378 C 86.335 185.609,84.901 183.669,84.375 182.413 C 83.967 181.442,83.827 178.733,84.144 177.947 C 84.248 177.689,84.333 177.408,84.333 177.322 C 84.333 177.237,84.397 177.167,84.474 177.167 C 84.551 177.167,84.757 176.889,84.932 176.550 C 85.107 176.211,85.400 175.755,85.583 175.537 C 85.767 175.319,85.917 175.088,85.917 175.025 C 85.917 174.962,86.215 174.462,86.579 173.913 C 86.943 173.365,87.257 172.812,87.276 172.683 C 87.295 172.555,87.377 172.405,87.458 172.350 C 87.672 172.205,88.701 170.667,88.585 170.667 C 88.531 170.667,88.677 170.461,88.910 170.210 C 89.143 169.959,89.333 169.664,89.333 169.555 C 89.333 169.446,89.427 169.258,89.542 169.137 C 89.889 168.770,91.000 167.017,91.000 166.836 C 91.000 166.743,91.075 166.667,91.167 166.667 C 91.258 166.667,91.333 166.520,91.333 166.342 C 91.333 166.163,91.465 165.940,91.625 165.847 C 91.785 165.753,91.842 165.673,91.750 165.669 C 91.655 165.665,91.664 165.609,91.770 165.539 C 92.126 165.306,93.663 162.795,93.556 162.622 C 93.493 162.520,93.529 162.498,93.645 162.570 C 93.771 162.648,93.907 162.506,94.021 162.179 C 94.119 161.897,94.258 161.667,94.329 161.667 C 94.401 161.667,94.553 161.442,94.667 161.167 C 94.781 160.892,94.926 160.667,94.989 160.667 C 95.053 160.667,95.232 160.423,95.388 160.125 C 95.543 159.827,95.817 159.358,95.997 159.083 C 96.176 158.808,96.449 158.358,96.603 158.083 C 96.757 157.808,97.049 157.321,97.251 157.000 C 97.453 156.679,97.626 156.358,97.637 156.286 C 97.647 156.214,97.777 156.033,97.925 155.884 C 98.074 155.735,98.377 155.325,98.598 154.973 C 98.819 154.621,99.200 154.015,99.445 153.625 C 99.690 153.235,99.871 152.888,99.847 152.852 C 99.824 152.816,99.872 152.741,99.955 152.685 C 100.184 152.530,101.333 150.740,101.333 150.538 C 101.333 150.441,101.400 150.336,101.482 150.306 C 101.652 150.242,102.213 149.346,102.586 148.542 C 102.725 148.244,102.907 148.000,102.991 148.000 C 103.075 148.000,103.195 147.831,103.258 147.625 C 103.320 147.419,103.526 147.081,103.715 146.875 C 103.904 146.669,104.004 146.500,103.939 146.500 C 103.873 146.500,104.011 146.294,104.245 146.042 C 104.479 145.790,104.717 145.437,104.774 145.258 C 104.831 145.079,104.980 144.830,105.105 144.704 C 105.231 144.579,105.333 144.369,105.333 144.238 C 105.333 144.107,105.406 144.000,105.496 144.000 C 105.671 144.000,106.257 142.997,106.201 142.792 C 106.182 142.723,106.246 142.667,106.342 142.667 C 106.438 142.667,106.596 142.442,106.692 142.167 C 106.788 141.892,106.929 141.667,107.005 141.667 C 107.082 141.667,107.192 141.517,107.250 141.334 C 107.308 141.152,107.446 140.908,107.556 140.793 C 107.890 140.445,108.833 138.901,108.833 138.702 C 108.833 138.600,108.934 138.457,109.057 138.383 C 109.179 138.310,109.496 137.875,109.760 137.417 C 110.024 136.958,110.300 136.508,110.373 136.417 C 110.708 135.994,111.333 134.971,111.333 134.846 C 111.333 134.770,111.448 134.613,111.587 134.497 C 111.727 134.381,111.807 134.251,111.764 134.208 C 111.680 134.125,111.914 133.803,112.375 133.368 C 112.535 133.216,112.667 133.037,112.667 132.969 C 112.667 132.862,113.313 131.773,113.835 131.000 C 114.678 129.753,115.211 128.883,115.237 128.712 C 115.254 128.599,115.433 128.332,115.634 128.118 C 115.835 127.904,116.000 127.674,116.000 127.607 C 116.000 127.541,116.079 127.395,116.177 127.285 C 116.335 127.104,116.478 126.892,117.206 125.754 C 117.917 124.643,118.495 123.650,118.484 123.559 C 118.477 123.501,118.544 123.408,118.634 123.352 C 118.723 123.296,118.935 123.017,119.106 122.733 C 119.277 122.448,119.698 121.790,120.042 121.271 C 120.385 120.752,120.667 120.253,120.667 120.163 C 120.667 120.074,120.726 120.000,120.799 120.000 C 120.915 120.000,121.325 119.370,122.583 117.262 C 122.767 116.955,123.160 116.354,123.458 115.927 C 123.756 115.499,124.000 115.049,124.000 114.926 C 124.000 114.803,124.112 114.659,124.250 114.606 C 124.388 114.554,124.500 114.431,124.500 114.335 C 124.500 114.146,125.281 112.892,125.625 112.530 C 125.739 112.409,125.833 112.214,125.833 112.097 C 125.833 111.981,125.984 111.749,126.168 111.582 C 126.352 111.416,126.469 111.246,126.428 111.206 C 126.387 111.165,126.508 110.970,126.696 110.774 C 126.885 110.577,127.145 110.192,127.273 109.917 C 127.402 109.642,127.763 109.079,128.076 108.667 C 128.389 108.254,128.650 107.866,128.656 107.803 C 128.662 107.741,128.967 107.239,129.333 106.687 C 129.700 106.135,130.000 105.604,130.000 105.508 C 130.000 105.412,130.075 105.333,130.167 105.333 C 130.258 105.333,130.333 105.227,130.333 105.097 C 130.333 104.967,130.390 104.836,130.458 104.806 C 130.642 104.724,131.333 103.707,131.333 103.519 C 131.333 103.430,131.443 103.247,131.577 103.113 C 131.712 102.979,131.843 102.767,131.869 102.643 C 131.895 102.518,132.037 102.304,132.184 102.167 C 132.331 102.029,132.593 101.663,132.767 101.353 C 133.140 100.688,133.226 100.549,134.043 99.288 C 134.386 98.760,134.667 98.253,134.667 98.163 C 134.667 98.074,134.742 98.000,134.833 98.000 C 134.925 98.000,135.000 97.888,135.000 97.750 C 135.000 97.612,135.070 97.500,135.155 97.500 C 135.319 97.500,135.593 96.849,135.529 96.613 C 135.508 96.537,135.569 96.523,135.664 96.582 C 135.758 96.640,135.888 96.552,135.951 96.386 C 136.015 96.219,136.241 95.821,136.453 95.500 C 136.666 95.179,136.912 94.804,137.000 94.667 C 137.088 94.529,137.349 94.132,137.580 93.784 C 137.811 93.436,138.000 93.043,138.000 92.909 C 138.000 92.776,138.060 92.667,138.134 92.667 C 138.294 92.667,140.167 89.787,140.167 89.541 C 140.167 89.446,140.279 89.326,140.417 89.273 C 140.554 89.220,140.667 89.103,140.667 89.013 C 140.667 88.860,141.300 87.819,141.647 87.401 C 141.730 87.301,141.921 87.001,142.071 86.734 C 142.221 86.468,142.490 86.025,142.670 85.750 C 142.850 85.475,143.090 85.063,143.205 84.833 C 143.320 84.604,143.546 84.271,143.707 84.094 C 143.868 83.916,144.000 83.672,144.000 83.552 C 144.000 83.432,144.075 83.333,144.167 83.333 C 144.258 83.333,144.333 83.221,144.333 83.083 C 144.333 82.946,144.413 82.833,144.510 82.833 C 144.607 82.833,144.644 82.765,144.592 82.681 C 144.540 82.597,144.559 82.503,144.634 82.473 C 144.708 82.442,145.046 81.985,145.385 81.458 C 145.723 80.931,146.265 80.089,146.590 79.587 C 146.914 79.086,147.158 78.642,147.131 78.601 C 147.105 78.560,147.265 78.333,147.487 78.097 C 147.710 77.860,147.838 77.667,147.773 77.667 C 147.707 77.667,147.795 77.515,147.967 77.331 C 148.139 77.146,148.386 76.789,148.515 76.539 C 148.644 76.288,148.881 75.938,149.042 75.760 C 149.202 75.583,149.333 75.348,149.333 75.239 C 149.333 75.130,149.439 74.953,149.567 74.847 C 149.853 74.610,150.585 73.101,150.747 72.417 C 150.811 72.142,150.907 71.767,150.958 71.583 C 151.556 69.443,150.811 64.740,149.750 63.961 C 149.658 63.894,149.649 63.837,149.728 63.836 C 150.022 63.831,147.815 61.333,147.516 61.333 C 147.416 61.333,147.333 61.264,147.333 61.178 C 147.333 60.985,145.891 60.000,145.608 60.000 C 145.494 60.000,145.323 59.923,145.230 59.830 C 145.136 59.736,144.653 59.499,144.155 59.302 L 143.250 58.945 103.917 58.931 C 82.283 58.923,63.833 58.932,62.917 58.950 M168.917 58.997 C 167.336 59.052,166.279 59.162,166.042 59.298 C 165.835 59.415,165.667 59.470,165.667 59.418 C 165.667 59.367,165.069 59.642,164.337 60.028 C 162.652 60.920,160.085 63.362,160.449 63.727 C 160.508 63.786,160.480 63.833,160.388 63.833 C 159.365 63.833,158.356 70.318,159.148 71.799 C 159.250 71.989,159.333 72.297,159.333 72.484 C 159.333 72.888,160.186 74.612,160.619 75.083 C 160.788 75.267,161.097 75.659,161.306 75.956 C 161.696 76.509,163.515 78.000,163.800 78.000 C 163.888 78.000,164.052 78.112,164.165 78.248 C 164.278 78.385,164.438 78.455,164.519 78.405 C 164.600 78.355,164.667 78.393,164.667 78.490 C 164.667 78.587,164.765 78.667,164.885 78.667 C 165.006 78.667,165.399 78.807,165.760 78.979 C 166.508 79.335,170.439 79.465,182.625 79.536 C 186.223 79.557,189.167 79.629,189.167 79.696 C 189.167 79.763,189.428 79.867,189.748 79.927 C 193.178 80.571,196.579 84.467,197.084 88.333 C 197.193 89.165,197.351 128.718,197.396 166.500 C 197.433 197.639,197.455 199.355,197.829 199.729 C 197.923 199.823,198.000 200.024,198.000 200.177 C 198.000 201.194,200.651 204.619,202.149 205.538 C 202.480 205.740,202.895 206.040,203.073 206.203 C 203.251 206.366,203.457 206.500,203.531 206.500 C 203.809 206.500,203.932 206.544,204.561 206.865 C 204.916 207.045,205.328 207.219,205.478 207.249 C 205.628 207.280,206.121 207.390,206.574 207.494 C 207.538 207.715,209.304 207.705,210.833 207.470 C 211.429 207.379,212.067 207.282,212.250 207.255 C 212.814 207.171,214.485 206.356,215.483 205.678 C 216.333 205.101,216.923 204.512,218.251 202.917 C 218.799 202.258,219.806 200.298,219.915 199.676 C 219.963 199.405,220.088 198.974,220.194 198.717 C 220.334 198.376,220.403 192.958,220.447 178.667 C 220.480 167.896,220.552 153.589,220.606 146.873 C 220.688 136.705,220.666 134.616,220.477 134.383 C 220.345 134.219,220.332 134.152,220.447 134.221 C 220.599 134.312,220.649 128.915,220.664 110.961 C 220.674 98.103,220.706 87.433,220.735 87.250 C 220.836 86.604,221.175 85.865,221.922 84.667 C 222.121 84.346,222.291 84.021,222.298 83.946 C 222.305 83.870,222.485 83.657,222.697 83.473 C 222.910 83.289,223.083 83.081,223.083 83.010 C 223.083 82.897,223.539 82.482,224.558 81.667 C 224.730 81.529,224.959 81.333,225.068 81.230 C 225.177 81.128,225.431 80.992,225.633 80.927 C 225.835 80.863,226.000 80.728,226.000 80.628 C 226.000 80.527,226.047 80.491,226.104 80.548 C 226.161 80.606,226.480 80.514,226.812 80.345 C 228.123 79.678,229.044 79.629,244.250 79.416 C 247.733 79.367,250.827 79.295,251.125 79.255 C 251.863 79.156,254.485 77.839,254.684 77.467 C 254.773 77.302,254.936 77.163,255.048 77.159 C 255.159 77.155,255.475 76.864,255.750 76.512 C 256.025 76.161,256.311 75.909,256.386 75.953 C 256.461 75.997,256.564 75.876,256.614 75.683 C 256.664 75.491,256.758 75.333,256.822 75.333 C 257.022 75.333,257.667 74.056,257.538 73.915 C 257.471 73.840,257.510 73.834,257.625 73.900 C 257.740 73.966,257.843 73.940,257.854 73.843 C 257.893 73.511,257.931 73.416,258.253 72.833 C 259.122 71.261,258.662 65.555,257.567 64.320 C 257.438 64.175,257.333 63.970,257.333 63.864 C 257.333 63.054,254.952 60.803,253.333 60.083 C 253.012 59.940,252.563 59.721,252.333 59.597 C 252.104 59.473,251.654 59.312,251.333 59.239 C 251.012 59.166,250.637 59.078,250.500 59.043 C 250.110 58.944,171.729 58.900,168.917 58.997 M276.917 59.017 C 274.088 59.132,273.167 59.262,273.167 59.547 C 273.167 59.643,273.120 59.676,273.063 59.619 C 272.967 59.522,272.372 59.807,270.768 60.716 C 270.412 60.918,269.678 61.565,269.138 62.155 C 268.199 63.180,267.922 63.573,267.488 64.500 C 267.380 64.729,267.133 65.217,266.938 65.583 L 266.583 66.250 266.583 131.500 C 266.583 167.387,266.631 197.688,266.690 198.833 C 266.802 201.042,267.353 202.516,268.455 203.563 C 268.660 203.758,268.829 203.990,268.830 204.081 C 268.848 205.056,273.225 207.496,275.250 207.659 C 277.465 207.837,345.513 207.735,345.979 207.553 C 346.288 207.432,346.682 207.333,346.854 207.333 C 347.026 207.333,347.167 207.246,347.167 207.139 C 347.167 207.032,347.213 206.991,347.271 207.048 C 347.412 207.189,349.515 206.059,349.860 205.656 C 350.012 205.479,350.188 205.333,350.250 205.333 C 350.410 205.333,351.333 204.444,351.333 204.291 C 351.333 204.221,351.562 203.925,351.841 203.632 C 353.545 201.849,354.425 197.706,353.659 195.066 C 353.476 194.434,353.292 193.772,353.250 193.596 C 353.209 193.419,353.091 193.223,352.990 193.160 C 352.888 193.097,352.805 193.000,352.804 192.944 C 352.804 192.680,352.617 192.167,352.521 192.167 C 352.463 192.167,352.320 191.953,352.205 191.693 C 351.597 190.319,349.078 188.363,347.033 187.677 C 345.237 187.073,342.667 187.007,320.500 186.992 C 308.721 186.984,298.858 186.955,298.583 186.928 C 297.584 186.828,296.737 186.615,296.132 186.311 C 295.792 186.140,295.398 186.000,295.257 186.000 C 295.115 186.000,295.000 185.934,295.000 185.852 C 295.000 185.771,294.754 185.588,294.453 185.445 C 294.152 185.302,293.721 185.024,293.495 184.826 C 293.268 184.628,292.971 184.380,292.833 184.275 C 292.506 184.024,291.225 182.431,291.333 182.408 C 291.379 182.399,291.207 182.115,290.950 181.779 C 290.693 181.442,290.522 181.167,290.569 181.167 C 290.616 181.167,290.519 180.848,290.353 180.458 C 289.980 179.584,289.800 178.695,289.755 177.500 C 289.690 175.756,289.690 154.580,289.755 153.833 C 289.791 153.421,289.858 152.583,289.904 151.971 C 289.985 150.879,290.398 149.726,291.041 148.792 C 291.214 148.540,291.306 148.333,291.244 148.333 C 291.183 148.333,291.346 148.079,291.608 147.768 C 291.869 147.457,292.196 147.061,292.333 146.887 C 292.751 146.360,294.301 145.212,295.133 144.814 C 295.564 144.608,295.954 144.388,296.000 144.324 C 296.046 144.261,296.346 144.153,296.667 144.085 C 296.987 144.017,297.349 143.882,297.469 143.785 C 297.751 143.557,300.746 143.515,321.750 143.444 L 338.750 143.386 339.490 143.026 C 339.896 142.828,340.293 142.667,340.370 142.667 C 341.063 142.667,344.074 140.022,344.752 138.820 C 345.256 137.924,345.852 136.667,345.907 136.384 C 345.940 136.219,346.057 135.623,346.167 135.061 C 346.672 132.505,345.926 128.878,344.604 127.454 C 344.368 127.200,344.180 126.950,344.186 126.899 C 344.203 126.752,343.040 125.500,342.886 125.500 C 342.809 125.500,342.653 125.350,342.539 125.167 C 342.424 124.983,342.219 124.833,342.082 124.833 C 341.945 124.833,341.833 124.767,341.833 124.687 C 341.833 124.458,339.496 123.373,338.750 123.254 C 336.681 122.926,333.378 122.857,318.417 122.829 C 297.705 122.790,298.051 122.799,296.658 122.273 C 292.926 120.865,290.284 117.847,289.925 114.583 C 289.375 109.574,289.629 87.534,290.251 86.332 C 290.392 86.058,290.450 85.832,290.379 85.831 C 290.308 85.829,290.325 85.773,290.417 85.705 C 290.508 85.638,290.758 85.257,290.972 84.860 C 292.149 82.669,294.987 80.382,297.083 79.935 C 297.358 79.876,297.771 79.790,298.000 79.743 C 298.229 79.696,305.354 79.622,313.833 79.578 C 345.968 79.411,346.203 79.407,346.973 79.014 C 347.347 78.823,347.769 78.667,347.910 78.667 C 348.051 78.667,348.167 78.592,348.167 78.500 C 348.167 78.408,348.223 78.351,348.292 78.373 C 348.561 78.458,350.312 77.127,351.255 76.121 C 353.654 73.562,354.522 69.965,353.580 66.500 C 353.517 66.271,353.428 65.877,353.381 65.625 C 353.334 65.373,353.217 65.167,353.120 65.167 C 353.023 65.167,352.992 65.119,353.051 65.060 C 353.109 65.002,353.004 64.740,352.817 64.477 C 352.630 64.215,352.534 64.000,352.603 64.000 C 352.673 64.000,352.571 63.853,352.378 63.672 C 352.184 63.492,351.977 63.191,351.918 63.003 C 351.858 62.815,351.740 62.705,351.655 62.757 C 351.570 62.810,351.500 62.779,351.500 62.688 C 351.500 62.517,350.443 61.333,350.290 61.333 C 350.241 61.333,349.961 61.108,349.666 60.833 C 348.765 59.991,346.840 59.204,345.167 58.994 C 344.445 58.903,279.178 58.925,276.917 59.017 " stroke="none" fill="#000000" fill-rule="evenodd"></path><path id="path1" d="M68.296 58.956 C 68.688 58.991,69.288 58.990,69.629 58.954 C 69.971 58.919,69.650 58.890,68.917 58.890 C 68.183 58.891,67.904 58.920,68.296 58.956 M95.052 58.958 C 96.502 58.986,98.827 58.986,100.219 58.958 C 101.611 58.930,100.425 58.907,97.583 58.907 C 94.742 58.908,93.603 58.930,95.052 58.958 M104.865 58.958 C 106.029 58.986,107.979 58.986,109.198 58.958 C 110.418 58.929,109.467 58.906,107.083 58.906 C 104.700 58.906,103.702 58.929,104.865 58.958 M197.218 58.958 C 198.300 58.987,200.025 58.987,201.051 58.958 C 202.077 58.928,201.192 58.905,199.083 58.905 C 196.975 58.905,196.135 58.929,197.218 58.958 M205.708 58.958 C 207.152 58.986,209.515 58.986,210.958 58.958 C 212.402 58.930,211.221 58.908,208.333 58.908 C 205.446 58.908,204.265 58.930,205.708 58.958 M234.301 58.958 C 235.245 58.988,236.745 58.987,237.634 58.957 C 238.523 58.928,237.750 58.903,235.917 58.903 C 234.083 58.904,233.356 58.928,234.301 58.958 M239.792 58.954 C 240.090 58.991,240.577 58.991,240.875 58.954 C 241.173 58.917,240.929 58.887,240.333 58.887 C 239.737 58.887,239.494 58.917,239.792 58.954 M283.460 58.951 C 283.668 58.991,283.968 58.990,284.127 58.948 C 284.286 58.906,284.117 58.874,283.750 58.875 C 283.383 58.877,283.253 58.911,283.460 58.951 M285.213 58.956 C 285.652 58.990,286.327 58.990,286.713 58.955 C 287.100 58.920,286.742 58.892,285.917 58.892 C 285.092 58.893,284.775 58.922,285.213 58.956 M337.875 58.955 C 338.219 58.991,338.781 58.991,339.125 58.955 C 339.469 58.919,339.188 58.889,338.500 58.889 C 337.813 58.889,337.531 58.919,337.875 58.955 M340.208 58.948 C 340.369 58.990,340.631 58.990,340.792 58.948 C 340.952 58.906,340.821 58.872,340.500 58.872 C 340.179 58.872,340.048 58.906,340.208 58.948 M220.548 112.250 C 220.549 112.708,220.581 112.876,220.620 112.623 C 220.658 112.369,220.657 111.994,220.617 111.789 C 220.578 111.584,220.546 111.792,220.548 112.250 M197.381 194.083 C 197.382 194.542,197.415 194.709,197.453 194.456 C 197.491 194.203,197.490 193.828,197.451 193.623 C 197.411 193.418,197.380 193.625,197.381 194.083 M67.625 207.787 C 67.923 207.824,68.410 207.824,68.708 207.787 C 69.006 207.750,68.762 207.720,68.167 207.720 C 67.571 207.720,67.327 207.750,67.625 207.787 M70.292 207.790 C 70.865 207.823,71.802 207.823,72.375 207.790 C 72.948 207.758,72.479 207.731,71.333 207.731 C 70.188 207.731,69.719 207.758,70.292 207.790 M126.375 207.789 C 126.810 207.824,127.523 207.824,127.958 207.789 C 128.394 207.755,128.037 207.727,127.167 207.727 C 126.296 207.727,125.940 207.755,126.375 207.789 M129.461 207.787 C 129.761 207.825,130.211 207.824,130.461 207.786 C 130.712 207.748,130.467 207.717,129.917 207.718 C 129.367 207.719,129.162 207.750,129.461 207.787 M283.548 207.790 C 284.078 207.823,284.903 207.823,285.381 207.789 C 285.859 207.756,285.425 207.729,284.417 207.729 C 283.408 207.729,283.017 207.757,283.548 207.790 M287.375 207.790 C 287.902 207.823,288.765 207.823,289.292 207.790 C 289.819 207.757,289.387 207.730,288.333 207.730 C 287.279 207.730,286.848 207.757,287.375 207.790 M316.114 207.791 C 317.690 207.819,320.315 207.819,321.948 207.791 C 323.581 207.764,322.292 207.742,319.083 207.742 C 315.875 207.742,314.539 207.764,316.114 207.791 M327.698 207.791 C 329.227 207.819,331.777 207.819,333.364 207.791 C 334.951 207.764,333.700 207.742,330.583 207.741 C 327.467 207.741,326.168 207.764,327.698 207.791 " stroke="none" fill="#04c4fc" fill-rule="evenodd"></path><path id="path2" d="" stroke="none" fill="#08bcfc" fill-rule="evenodd"></path><path id="path3" d="" stroke="none" fill="#000000" fill-rule="evenodd"></path><path id="path4" d="" stroke="none" fill="#08bcfc" fill-rule="evenodd"></path></g></svg>